<svg width="32" height="48" viewBox="0 0 32 48" fill="none" xmlns="http://www.w3.org/2000/svg">
<path fill-rule="evenodd" clip-rule="evenodd" d="M24.084 23.653C24.039 23.931 23.93 24.196 23.765 24.427C23.6 24.659 23.384 24.851 23.131 24.99C22.623 25.309 22.178 25.468 21.729 25.627C20.77 25.949 19.762 26.27 18.696 26.643C17.571 27.016 16.562 27.389 15.663 27.658C14.54 28.031 13.474 28.353 12.46 28.725C11.698 29.042 10.981 29.456 10.33 29.954C9.724 30.488 9.195 31.098 8.758 31.769C8.308 32.515 8.024 33.477 8.024 34.598C8.024 36.842 8.58601 38.549 9.71001 39.616C10.833 40.74 12.913 41.272 15.996 41.272C19.14 41.272 21.273 40.686 22.401 39.511C23.52 38.336 24.081 36.683 24.081 34.549V23.653H24.084ZM15.999 0C21.504 0 25.545 1.01599 28.125 3.09799C30.708 5.12899 32 7.74101 32 10.837V37.215C32 38.282 31.778 39.457 31.386 40.737C30.989 42.022 30.206 43.195 28.97 44.259C27.792 45.331 26.164 46.239 24.087 46.933C22.009 47.627 19.315 48 16.001 48C12.693 48 9.99401 47.627 7.91901 46.933C5.84401 46.239 4.213 45.331 3.036 44.259C1.94 43.3 1.10999 42.089 0.621994 40.737C0.224994 39.459 0 38.284 0 37.217V33.001C0 30.757 0.616997 28.674 1.853 26.856C3.089 24.99 4.82701 23.709 7.07401 22.907C8.19701 22.535 9.488 22.162 10.946 21.681C12.407 21.198 13.752 20.717 15.101 20.293C16.451 19.863 17.629 19.434 18.637 19.059C19.246 18.822 19.864 18.609 20.49 18.421L21.501 17.94C21.898 17.727 22.287 17.405 22.681 16.979C23.073 16.554 23.409 16.074 23.692 15.539C23.992 14.96 24.146 14.32 24.142 13.672V11.963C24.146 11.336 24.011 10.716 23.745 10.145C23.523 9.50199 23.073 8.916 22.456 8.384C21.84 7.849 20.995 7.42199 19.987 7.09799C18.976 6.78199 17.632 6.62 16.112 6.62C12.968 6.62 10.891 7.212 9.769 8.435C8.816 9.505 8.255 10.839 8.144 12.333C8.144 12.654 7.863 12.868 7.524 12.868L0.677994 12.976C0.514994 12.976 0.358996 12.915 0.242996 12.804C0.126996 12.693 0.0599987 12.542 0.0579987 12.384V10.842C0.0579987 9.34301 0.340993 7.955 0.957993 6.62C1.57699 5.283 2.53301 4.16499 3.82201 3.20099C5.11301 2.24199 6.79899 1.44199 8.81799 0.90799C10.785 0.264989 13.199 0 16.004 0H15.999Z" fill="#0A3871"/>
</svg>
